<svg width="679" height="48" viewBox="0 0 679 48" fill="none" xmlns="http://www.w3.org/2000/svg">
<path d="M0.594 17.664C0.594 16.416 0.864 15.306 1.404 14.334C1.944 13.35 2.694 12.588 3.654 12.048C4.626 11.496 5.724 11.22 6.948 11.22C8.448 11.22 9.732 11.616 10.8 12.408C11.868 13.2 12.582 14.28 12.942 15.648H9.558C9.306 15.12 8.946 14.718 8.478 14.442C8.022 14.166 7.5 14.028 6.912 14.028C5.964 14.028 5.196 14.358 4.608 15.018C4.02 15.678 3.726 16.56 3.726 17.664C3.726 18.768 4.02 19.65 4.608 20.31C5.196 20.97 5.964 21.3 6.912 21.3C7.5 21.3 8.022 21.162 8.478 20.886C8.946 20.61 9.306 20.208 9.558 19.68H12.942C12.582 21.048 11.868 22.128 10.8 22.92C9.732 23.7 8.448 24.09 6.948 24.09C5.724 24.09 4.626 23.82 3.654 23.28C2.694 22.728 1.944 21.966 1.404 20.994C0.864 20.022 0.594 18.912 0.594 17.664ZM19.3989 24.126C18.4749 24.126 17.6469 23.976 16.9149 23.676C16.1829 23.376 15.5949 22.932 15.1509 22.344C14.7189 21.756 14.4909 21.048 14.4669 20.22H17.7429C17.7909 20.688 17.9529 21.048 18.2289 21.3C18.5049 21.54 18.8649 21.66 19.3089 21.66C19.7649 21.66 20.1249 21.558 20.3889 21.354C20.6529 21.138 20.7849 20.844 20.7849 20.472C20.7849 20.16 20.6769 19.902 20.4609 19.698C20.2569 19.494 19.9989 19.326 19.6869 19.194C19.3869 19.062 18.9549 18.912 18.3909 18.744C17.5749 18.492 16.9089 18.24 16.3929 17.988C15.8769 17.736 15.4329 17.364 15.0609 16.872C14.6889 16.38 14.5029 15.738 14.5029 14.946C14.5029 13.77 14.9289 12.852 15.7809 12.192C16.6329 11.52 17.7429 11.184 19.1109 11.184C20.5029 11.184 21.6249 11.52 22.4769 12.192C23.3289 12.852 23.7849 13.776 23.8449 14.964H20.5149C20.4909 14.556 20.3409 14.238 20.0649 14.01C19.7889 13.77 19.4349 13.65 19.0029 13.65C18.6309 13.65 18.3309 13.752 18.1029 13.956C17.8749 14.148 17.7609 14.43 17.7609 14.802C17.7609 15.21 17.9529 15.528 18.3369 15.756C18.7209 15.984 19.3209 16.23 20.1369 16.494C20.9529 16.77 21.6129 17.034 22.1169 17.286C22.6329 17.538 23.0769 17.904 23.4489 18.384C23.8209 18.864 24.0069 19.482 24.0069 20.238C24.0069 20.958 23.8209 21.612 23.4489 22.2C23.0889 22.788 22.5609 23.256 21.8649 23.604C21.1689 23.952 20.3469 24.126 19.3989 24.126ZM30.4732 24.126C29.5492 24.126 28.7212 23.976 27.9892 23.676C27.2572 23.376 26.6692 22.932 26.2252 22.344C25.7932 21.756 25.5652 21.048 25.5412 20.22H28.8172C28.8652 20.688 29.0272 21.048 29.3032 21.3C29.5792 21.54 29.9392 21.66 30.3832 21.66C30.8392 21.66 31.1992 21.558 31.4632 21.354C31.7272 21.138 31.8592 20.844 31.8592 20.472C31.8592 20.16 31.7512 19.902 31.5352 19.698C31.3312 19.494 31.0732 19.326 30.7612 19.194C30.4612 19.062 30.0292 18.912 29.4652 18.744C28.6492 18.492 27.9832 18.24 27.4672 17.988C26.9512 17.736 26.5072 17.364 26.1352 16.872C25.7632 16.38 25.5772 15.738 25.5772 14.946C25.5772 13.77 26.0032 12.852 26.8552 12.192C27.7072 11.52 28.8172 11.184 30.1852 11.184C31.5772 11.184 32.6992 11.52 33.5512 12.192C34.4032 12.852 34.8592 13.776 34.9192 14.964H31.5892C31.5652 14.556 31.4152 14.238 31.1392 14.01C30.8632 13.77 30.5092 13.65 30.0772 13.65C29.7052 13.65 29.4052 13.752 29.1772 13.956C28.9492 14.148 28.8352 14.43 28.8352 14.802C28.8352 15.21 29.0272 15.528 29.4112 15.756C29.7952 15.984 30.3952 16.23 31.2112 16.494C32.0272 16.77 32.6872 17.034 33.1912 17.286C33.7072 17.538 34.1512 17.904 34.5232 18.384C34.8952 18.864 35.0812 19.482 35.0812 20.238C35.0812 20.958 34.8952 21.612 34.5232 22.2C34.1632 22.788 33.6352 23.256 32.9392 23.604C32.2432 23.952 31.4212 24.126 30.4732 24.126Z" fill="white"/>
<path d="M645.371 16.736C644.848 16.5307 644.447 16.232 644.167 15.84C643.887 15.448 643.747 14.972 643.747 14.412C643.747 13.908 643.873 13.4553 644.125 13.054C644.377 12.6433 644.75 12.3213 645.245 12.088C645.749 11.8453 646.355 11.724 647.065 11.724C647.774 11.724 648.376 11.8453 648.871 12.088C649.375 12.3213 649.753 12.6433 650.005 13.054C650.266 13.4553 650.397 13.908 650.397 14.412C650.397 14.9533 650.252 15.4293 649.963 15.84C649.673 16.2413 649.277 16.54 648.773 16.736C649.351 16.9133 649.809 17.226 650.145 17.674C650.49 18.1127 650.663 18.6447 650.663 19.27C650.663 19.8767 650.513 20.4087 650.215 20.866C649.916 21.314 649.491 21.664 648.941 21.916C648.399 22.1587 647.774 22.28 647.065 22.28C646.355 22.28 645.73 22.1587 645.189 21.916C644.657 21.664 644.241 21.314 643.943 20.866C643.644 20.4087 643.495 19.8767 643.495 19.27C643.495 18.6447 643.663 18.108 643.999 17.66C644.335 17.212 644.792 16.904 645.371 16.736ZM649.165 14.566C649.165 13.9967 648.978 13.558 648.605 13.25C648.231 12.942 647.718 12.788 647.065 12.788C646.421 12.788 645.912 12.942 645.539 13.25C645.165 13.558 644.979 14.0013 644.979 14.58C644.979 15.1027 645.17 15.5227 645.553 15.84C645.945 16.1573 646.449 16.316 647.065 16.316C647.69 16.316 648.194 16.1573 648.577 15.84C648.969 15.5133 649.165 15.0887 649.165 14.566ZM647.065 17.296C646.374 17.296 645.809 17.4593 645.371 17.786C644.932 18.1033 644.713 18.584 644.713 19.228C644.713 19.8253 644.923 20.306 645.343 20.67C645.772 21.034 646.346 21.216 647.065 21.216C647.783 21.216 648.353 21.034 648.773 20.67C649.193 20.306 649.403 19.8253 649.403 19.228C649.403 18.6027 649.188 18.1267 648.759 17.8C648.329 17.464 647.765 17.296 647.065 17.296ZM652.355 16.834C652.355 15.2287 652.616 13.978 653.139 13.082C653.661 12.1767 654.576 11.724 655.883 11.724C657.18 11.724 658.09 12.1767 658.613 13.082C659.135 13.978 659.397 15.2287 659.397 16.834C659.397 18.4673 659.135 19.7367 658.613 20.642C658.09 21.5473 657.18 22 655.883 22C654.576 22 653.661 21.5473 653.139 20.642C652.616 19.7367 652.355 18.4673 652.355 16.834ZM658.137 16.834C658.137 16.022 658.081 15.336 657.969 14.776C657.866 14.2067 657.647 13.7493 657.311 13.404C656.984 13.0587 656.508 12.886 655.883 12.886C655.248 12.886 654.763 13.0587 654.427 13.404C654.1 13.7493 653.881 14.2067 653.769 14.776C653.666 15.336 653.615 16.022 653.615 16.834C653.615 17.674 653.666 18.3787 653.769 18.948C653.881 19.5173 654.1 19.9747 654.427 20.32C654.763 20.6653 655.248 20.838 655.883 20.838C656.508 20.838 656.984 20.6653 657.311 20.32C657.647 19.9747 657.866 19.5173 657.969 18.948C658.081 18.3787 658.137 17.674 658.137 16.834ZM660.866 14.16C660.866 13.5253 661.057 13.0213 661.44 12.648C661.822 12.2653 662.312 12.074 662.91 12.074C663.507 12.074 663.997 12.2653 664.38 12.648C664.762 13.0213 664.954 13.5253 664.954 14.16C664.954 14.804 664.762 15.3173 664.38 15.7C663.997 16.0733 663.507 16.26 662.91 16.26C662.312 16.26 661.822 16.0733 661.44 15.7C661.057 15.3173 660.866 14.804 660.866 14.16ZM669.042 12.228L663.372 22H662.112L667.782 12.228H669.042ZM662.91 12.858C662.592 12.858 662.34 12.97 662.154 13.194C661.976 13.4087 661.888 13.7307 661.888 14.16C661.888 14.5893 661.976 14.916 662.154 15.14C662.34 15.364 662.592 15.476 662.91 15.476C663.227 15.476 663.479 15.364 663.666 15.14C663.852 14.9067 663.946 14.58 663.946 14.16C663.946 13.7307 663.852 13.4087 663.666 13.194C663.479 12.97 663.227 12.858 662.91 12.858ZM666.228 20.068C666.228 19.424 666.419 18.9153 666.802 18.542C667.184 18.1593 667.674 17.968 668.272 17.968C668.869 17.968 669.354 18.1593 669.728 18.542C670.11 18.9153 670.302 19.424 670.302 20.068C670.302 20.7027 670.11 21.2113 669.728 21.594C669.354 21.9767 668.869 22.168 668.272 22.168C667.674 22.168 667.184 21.9813 666.802 21.608C666.419 21.2253 666.228 20.712 666.228 20.068ZM668.258 18.766C667.94 18.766 667.688 18.878 667.502 19.102C667.315 19.3167 667.222 19.6387 667.222 20.068C667.222 20.488 667.315 20.81 667.502 21.034C667.688 21.2487 667.94 21.356 668.258 21.356C668.575 21.356 668.827 21.2487 669.014 21.034C669.2 20.81 669.294 20.488 669.294 20.068C669.294 19.6387 669.2 19.3167 669.014 19.102C668.827 18.878 668.575 18.766 668.258 18.766Z" fill="white" fill-opacity="0.7"/>
<rect y="33" width="665.784" height="15" rx="7.5" fill="#444444"/>
<rect x="1.65204" y="35" width="662.479" height="11" rx="5.5" fill="#222222"/>
<rect x="3.3042" y="38" width="493.142" height="5" rx="2.5" fill="#0B9EEA"/>
</svg>
