<svg width="679" height="48" viewBox="0 0 679 48" fill="none" xmlns="http://www.w3.org/2000/svg">
<path d="M9.504 15.36C9.276 14.94 8.946 14.622 8.514 14.406C8.094 14.178 7.596 14.064 7.02 14.064C6.024 14.064 5.226 14.394 4.626 15.054C4.026 15.702 3.726 16.572 3.726 17.664C3.726 18.828 4.038 19.74 4.662 20.4C5.298 21.048 6.168 21.372 7.272 21.372C8.028 21.372 8.664 21.18 9.18 20.796C9.708 20.412 10.092 19.86 10.332 19.14H6.426V16.872H13.122V19.734C12.894 20.502 12.504 21.216 11.952 21.876C11.412 22.536 10.722 23.07 9.882 23.478C9.042 23.886 8.094 24.09 7.038 24.09C5.79 24.09 4.674 23.82 3.69 23.28C2.718 22.728 1.956 21.966 1.404 20.994C0.864 20.022 0.594 18.912 0.594 17.664C0.594 16.416 0.864 15.306 1.404 14.334C1.956 13.35 2.718 12.588 3.69 12.048C4.662 11.496 5.772 11.22 7.02 11.22C8.532 11.22 9.804 11.586 10.836 12.318C11.88 13.05 12.57 14.064 12.906 15.36H9.504ZM17.9049 15.63C18.2649 15.078 18.7149 14.646 19.2549 14.334C19.7949 14.01 20.3949 13.848 21.0549 13.848V17.106H20.2089C19.4409 17.106 18.8649 17.274 18.4809 17.61C18.0969 17.934 17.9049 18.51 17.9049 19.338V24H14.8269V13.956H17.9049V15.63ZM31.9942 18.816C31.9942 19.104 31.9762 19.404 31.9402 19.716H24.9742C25.0222 20.34 25.2202 20.82 25.5682 21.156C25.9282 21.48 26.3662 21.642 26.8822 21.642C27.6502 21.642 28.1842 21.318 28.4842 20.67H31.7602C31.5922 21.33 31.2862 21.924 30.8422 22.452C30.4102 22.98 29.8642 23.394 29.2042 23.694C28.5442 23.994 27.8062 24.144 26.9902 24.144C26.0062 24.144 25.1302 23.934 24.3622 23.514C23.5942 23.094 22.9942 22.494 22.5622 21.714C22.1302 20.934 21.9142 20.022 21.9142 18.978C21.9142 17.934 22.1242 17.022 22.5442 16.242C22.9762 15.462 23.5762 14.862 24.3442 14.442C25.1122 14.022 25.9942 13.812 26.9902 13.812C27.9622 13.812 28.8262 14.016 29.5822 14.424C30.3382 14.832 30.9262 15.414 31.3462 16.17C31.7782 16.926 31.9942 17.808 31.9942 18.816ZM28.8442 18.006C28.8442 17.478 28.6642 17.058 28.3042 16.746C27.9442 16.434 27.4942 16.278 26.9542 16.278C26.4382 16.278 26.0002 16.428 25.6402 16.728C25.2922 17.028 25.0762 17.454 24.9922 18.006H28.8442ZM43.086 18.816C43.086 19.104 43.068 19.404 43.032 19.716H36.066C36.114 20.34 36.312 20.82 36.66 21.156C37.02 21.48 37.458 21.642 37.974 21.642C38.742 21.642 39.276 21.318 39.576 20.67H42.852C42.684 21.33 42.378 21.924 41.934 22.452C41.502 22.98 40.956 23.394 40.296 23.694C39.636 23.994 38.898 24.144 38.082 24.144C37.098 24.144 36.222 23.934 35.454 23.514C34.686 23.094 34.086 22.494 33.654 21.714C33.222 20.934 33.006 20.022 33.006 18.978C33.006 17.934 33.216 17.022 33.636 16.242C34.068 15.462 34.668 14.862 35.436 14.442C36.204 14.022 37.086 13.812 38.082 13.812C39.054 13.812 39.918 14.016 40.674 14.424C41.43 14.832 42.018 15.414 42.438 16.17C42.87 16.926 43.086 17.808 43.086 18.816ZM39.936 18.006C39.936 17.478 39.756 17.058 39.396 16.746C39.036 16.434 38.586 16.278 38.046 16.278C37.53 16.278 37.092 16.428 36.732 16.728C36.384 17.028 36.168 17.454 36.084 18.006H39.936ZM50.8298 13.848C52.0058 13.848 52.9418 14.232 53.6378 15C54.3458 15.756 54.6998 16.8 54.6998 18.132V24H51.6398V18.546C51.6398 17.874 51.4658 17.352 51.1178 16.98C50.7698 16.608 50.3018 16.422 49.7138 16.422C49.1258 16.422 48.6578 16.608 48.3098 16.98C47.9618 17.352 47.7878 17.874 47.7878 18.546V24H44.7098V13.956H47.7878V15.288C48.0998 14.844 48.5198 14.496 49.0478 14.244C49.5758 13.98 50.1698 13.848 50.8298 13.848ZM61.4107 24.126C60.4867 24.126 59.6587 23.976 58.9267 23.676C58.1947 23.376 57.6067 22.932 57.1627 22.344C56.7307 21.756 56.5027 21.048 56.4787 20.22H59.7547C59.8027 20.688 59.9647 21.048 60.2407 21.3C60.5167 21.54 60.8767 21.66 61.3207 21.66C61.7767 21.66 62.1367 21.558 62.4007 21.354C62.6647 21.138 62.7967 20.844 62.7967 20.472C62.7967 20.16 62.6887 19.902 62.4727 19.698C62.2687 19.494 62.0107 19.326 61.6987 19.194C61.3987 19.062 60.9667 18.912 60.4027 18.744C59.5867 18.492 58.9207 18.24 58.4047 17.988C57.8887 17.736 57.4447 17.364 57.0727 16.872C56.7007 16.38 56.5147 15.738 56.5147 14.946C56.5147 13.77 56.9407 12.852 57.7927 12.192C58.6447 11.52 59.7547 11.184 61.1227 11.184C62.5147 11.184 63.6367 11.52 64.4887 12.192C65.3407 12.852 65.7967 13.776 65.8567 14.964H62.5267C62.5027 14.556 62.3527 14.238 62.0767 14.01C61.8007 13.77 61.4467 13.65 61.0147 13.65C60.6427 13.65 60.3427 13.752 60.1147 13.956C59.8867 14.148 59.7727 14.43 59.7727 14.802C59.7727 15.21 59.9647 15.528 60.3487 15.756C60.7327 15.984 61.3327 16.23 62.1487 16.494C62.9647 16.77 63.6247 17.034 64.1287 17.286C64.6447 17.538 65.0887 17.904 65.4607 18.384C65.8327 18.864 66.0187 19.482 66.0187 20.238C66.0187 20.958 65.8327 21.612 65.4607 22.2C65.1007 22.788 64.5727 23.256 63.8767 23.604C63.1807 23.952 62.3587 24.126 61.4107 24.126ZM74.0869 13.848C75.2389 13.848 76.1629 14.232 76.8589 15C77.5549 15.756 77.9029 16.8 77.9029 18.132V24H74.8429V18.546C74.8429 17.874 74.6689 17.352 74.3209 16.98C73.9729 16.608 73.5049 16.422 72.9169 16.422C72.3289 16.422 71.8609 16.608 71.5129 16.98C71.1649 17.352 70.9909 17.874 70.9909 18.546V24H67.9129V10.68H70.9909V15.306C71.3029 14.862 71.7289 14.508 72.2689 14.244C72.8089 13.98 73.4149 13.848 74.0869 13.848ZM84.6138 24.144C83.6298 24.144 82.7418 23.934 81.9498 23.514C81.1698 23.094 80.5518 22.494 80.0958 21.714C79.6518 20.934 79.4298 20.022 79.4298 18.978C79.4298 17.946 79.6578 17.04 80.1138 16.26C80.5698 15.468 81.1938 14.862 81.9858 14.442C82.7778 14.022 83.6658 13.812 84.6498 13.812C85.6338 13.812 86.5218 14.022 87.3138 14.442C88.1058 14.862 88.7298 15.468 89.1858 16.26C89.6418 17.04 89.8698 17.946 89.8698 18.978C89.8698 20.01 89.6358 20.922 89.1678 21.714C88.7118 22.494 88.0818 23.094 87.2778 23.514C86.4858 23.934 85.5978 24.144 84.6138 24.144ZM84.6138 21.48C85.2018 21.48 85.6998 21.264 86.1078 20.832C86.5278 20.4 86.7378 19.782 86.7378 18.978C86.7378 18.174 86.5338 17.556 86.1258 17.124C85.7298 16.692 85.2378 16.476 84.6498 16.476C84.0498 16.476 83.5518 16.692 83.1558 17.124C82.7598 17.544 82.5618 18.162 82.5618 18.978C82.5618 19.782 82.7538 20.4 83.1378 20.832C83.5338 21.264 84.0258 21.48 84.6138 21.48ZM90.8907 18.978C90.8907 17.934 91.1007 17.022 91.5207 16.242C91.9527 15.462 92.5467 14.862 93.3027 14.442C94.0707 14.022 94.9467 13.812 95.9307 13.812C97.1907 13.812 98.2407 14.142 99.0807 14.802C99.9327 15.462 100.491 16.392 100.755 17.592H97.4787C97.2027 16.824 96.6687 16.44 95.8767 16.44C95.3127 16.44 94.8627 16.662 94.5267 17.106C94.1907 17.538 94.0227 18.162 94.0227 18.978C94.0227 19.794 94.1907 20.424 94.5267 20.868C94.8627 21.3 95.3127 21.516 95.8767 21.516C96.6687 21.516 97.2027 21.132 97.4787 20.364H100.755C100.491 21.54 99.9327 22.464 99.0807 23.136C98.2287 23.808 97.1787 24.144 95.9307 24.144C94.9467 24.144 94.0707 23.934 93.3027 23.514C92.5467 23.094 91.9527 22.494 91.5207 21.714C91.1007 20.934 90.8907 20.022 90.8907 18.978ZM108.539 24L105.479 19.788V24H102.401V10.68H105.479V18.042L108.521 13.956H112.319L108.143 18.996L112.355 24H108.539Z" fill="white"/>
<path d="M643.369 20.978C644.554 20.026 645.483 19.2467 646.155 18.64C646.827 18.024 647.391 17.3847 647.849 16.722C648.315 16.05 648.549 15.392 648.549 14.748C648.549 14.1413 648.399 13.6653 648.101 13.32C647.811 12.9653 647.34 12.788 646.687 12.788C646.052 12.788 645.557 12.9887 645.203 13.39C644.857 13.782 644.671 14.3093 644.643 14.972H643.411C643.448 13.9267 643.765 13.1193 644.363 12.55C644.96 11.9807 645.73 11.696 646.673 11.696C647.634 11.696 648.395 11.962 648.955 12.494C649.524 13.026 649.809 13.7587 649.809 14.692C649.809 15.4667 649.575 16.2227 649.109 16.96C648.651 17.688 648.129 18.332 647.541 18.892C646.953 19.4427 646.201 20.0867 645.287 20.824H650.103V21.888H643.369V20.978ZM651.575 16.834C651.575 15.2287 651.837 13.978 652.359 13.082C652.882 12.1767 653.797 11.724 655.103 11.724C656.401 11.724 657.311 12.1767 657.833 13.082C658.356 13.978 658.617 15.2287 658.617 16.834C658.617 18.4673 658.356 19.7367 657.833 20.642C657.311 21.5473 656.401 22 655.103 22C653.797 22 652.882 21.5473 652.359 20.642C651.837 19.7367 651.575 18.4673 651.575 16.834ZM657.357 16.834C657.357 16.022 657.301 15.336 657.189 14.776C657.087 14.2067 656.867 13.7493 656.531 13.404C656.205 13.0587 655.729 12.886 655.103 12.886C654.469 12.886 653.983 13.0587 653.647 13.404C653.321 13.7493 653.101 14.2067 652.989 14.776C652.887 15.336 652.835 16.022 652.835 16.834C652.835 17.674 652.887 18.3787 652.989 18.948C653.101 19.5173 653.321 19.9747 653.647 20.32C653.983 20.6653 654.469 20.838 655.103 20.838C655.729 20.838 656.205 20.6653 656.531 20.32C656.867 19.9747 657.087 19.5173 657.189 18.948C657.301 18.3787 657.357 17.674 657.357 16.834ZM660.086 14.16C660.086 13.5253 660.278 13.0213 660.66 12.648C661.043 12.2653 661.533 12.074 662.13 12.074C662.728 12.074 663.218 12.2653 663.6 12.648C663.983 13.0213 664.174 13.5253 664.174 14.16C664.174 14.804 663.983 15.3173 663.6 15.7C663.218 16.0733 662.728 16.26 662.13 16.26C661.533 16.26 661.043 16.0733 660.66 15.7C660.278 15.3173 660.086 14.804 660.086 14.16ZM668.262 12.228L662.592 22H661.332L667.002 12.228H668.262ZM662.13 12.858C661.813 12.858 661.561 12.97 661.374 13.194C661.197 13.4087 661.108 13.7307 661.108 14.16C661.108 14.5893 661.197 14.916 661.374 15.14C661.561 15.364 661.813 15.476 662.13 15.476C662.448 15.476 662.7 15.364 662.886 15.14C663.073 14.9067 663.166 14.58 663.166 14.16C663.166 13.7307 663.073 13.4087 662.886 13.194C662.7 12.97 662.448 12.858 662.13 12.858ZM665.448 20.068C665.448 19.424 665.64 18.9153 666.022 18.542C666.405 18.1593 666.895 17.968 667.492 17.968C668.09 17.968 668.575 18.1593 668.948 18.542C669.331 18.9153 669.522 19.424 669.522 20.068C669.522 20.7027 669.331 21.2113 668.948 21.594C668.575 21.9767 668.09 22.168 667.492 22.168C666.895 22.168 666.405 21.9813 666.022 21.608C665.64 21.2253 665.448 20.712 665.448 20.068ZM667.478 18.766C667.161 18.766 666.909 18.878 666.722 19.102C666.536 19.3167 666.442 19.6387 666.442 20.068C666.442 20.488 666.536 20.81 666.722 21.034C666.909 21.2487 667.161 21.356 667.478 21.356C667.796 21.356 668.048 21.2487 668.234 21.034C668.421 20.81 668.514 20.488 668.514 20.068C668.514 19.6387 668.421 19.3167 668.234 19.102C668.048 18.878 667.796 18.766 667.478 18.766Z" fill="white" fill-opacity="0.7"/>
<rect y="33" width="665.784" height="15" rx="7.5" fill="#444444"/>
<rect x="1.65204" y="35" width="662.479" height="11" rx="5.5" fill="#222222"/>
<rect x="3.3042" y="38" width="159.425" height="5" rx="2.5" fill="#5463FF"/>
</svg>
