<svg width="678" height="53" viewBox="0 0 678 53" fill="none" xmlns="http://www.w3.org/2000/svg">
<path d="M12.7121 11.364V24H9.6341V18.798H4.8461V24H1.7681V11.364H4.8461V16.314H9.6341V11.364H12.7121ZM24.0241 11.364V13.83H20.6761V24H17.5981V13.83H14.2501V11.364H24.0241ZM39.8789 11.364V24H36.8009V16.422L33.9749 24H31.4909L28.6469 16.404V24H25.5689V11.364H29.2049L32.7509 20.112L36.2609 11.364H39.8789ZM45.1703 21.624H49.2023V24H42.0923V11.364H45.1703V21.624Z" fill="white"/>
<path d="M642.142 13.04V11.878H644.774V22H643.486V13.04H642.142ZM646.962 16.834C646.962 15.2287 647.224 13.978 647.746 13.082C648.269 12.1767 649.184 11.724 650.49 11.724C651.788 11.724 652.698 12.1767 653.22 13.082C653.743 13.978 654.004 15.2287 654.004 16.834C654.004 18.4673 653.743 19.7367 653.22 20.642C652.698 21.5473 651.788 22 650.49 22C649.184 22 648.269 21.5473 647.746 20.642C647.224 19.7367 646.962 18.4673 646.962 16.834ZM652.744 16.834C652.744 16.022 652.688 15.336 652.576 14.776C652.474 14.2067 652.254 13.7493 651.918 13.404C651.592 13.0587 651.116 12.886 650.49 12.886C649.856 12.886 649.37 13.0587 649.034 13.404C648.708 13.7493 648.488 14.2067 648.376 14.776C648.274 15.336 648.222 16.022 648.222 16.834C648.222 17.674 648.274 18.3787 648.376 18.948C648.488 19.5173 648.708 19.9747 649.034 20.32C649.37 20.6653 649.856 20.838 650.49 20.838C651.116 20.838 651.592 20.6653 651.918 20.32C652.254 19.9747 652.474 19.5173 652.576 18.948C652.688 18.3787 652.744 17.674 652.744 16.834ZM655.753 16.834C655.753 15.2287 656.015 13.978 656.537 13.082C657.06 12.1767 657.975 11.724 659.281 11.724C660.579 11.724 661.489 12.1767 662.011 13.082C662.534 13.978 662.795 15.2287 662.795 16.834C662.795 18.4673 662.534 19.7367 662.011 20.642C661.489 21.5473 660.579 22 659.281 22C657.975 22 657.06 21.5473 656.537 20.642C656.015 19.7367 655.753 18.4673 655.753 16.834ZM661.535 16.834C661.535 16.022 661.479 15.336 661.367 14.776C661.265 14.2067 661.045 13.7493 660.709 13.404C660.383 13.0587 659.907 12.886 659.281 12.886C658.647 12.886 658.161 13.0587 657.825 13.404C657.499 13.7493 657.279 14.2067 657.167 14.776C657.065 15.336 657.013 16.022 657.013 16.834C657.013 17.674 657.065 18.3787 657.167 18.948C657.279 19.5173 657.499 19.9747 657.825 20.32C658.161 20.6653 658.647 20.838 659.281 20.838C659.907 20.838 660.383 20.6653 660.709 20.32C661.045 19.9747 661.265 19.5173 661.367 18.948C661.479 18.3787 661.535 17.674 661.535 16.834ZM664.265 14.16C664.265 13.5253 664.456 13.0213 664.839 12.648C665.221 12.2653 665.711 12.074 666.309 12.074C666.906 12.074 667.396 12.2653 667.779 12.648C668.161 13.0213 668.353 13.5253 668.353 14.16C668.353 14.804 668.161 15.3173 667.779 15.7C667.396 16.0733 666.906 16.26 666.309 16.26C665.711 16.26 665.221 16.0733 664.839 15.7C664.456 15.3173 664.265 14.804 664.265 14.16ZM672.441 12.228L666.771 22H665.511L671.181 12.228H672.441ZM666.309 12.858C665.991 12.858 665.739 12.97 665.553 13.194C665.375 13.4087 665.287 13.7307 665.287 14.16C665.287 14.5893 665.375 14.916 665.553 15.14C665.739 15.364 665.991 15.476 666.309 15.476C666.626 15.476 666.878 15.364 667.065 15.14C667.251 14.9067 667.345 14.58 667.345 14.16C667.345 13.7307 667.251 13.4087 667.065 13.194C666.878 12.97 666.626 12.858 666.309 12.858ZM669.627 20.068C669.627 19.424 669.818 18.9153 670.201 18.542C670.583 18.1593 671.073 17.968 671.671 17.968C672.268 17.968 672.753 18.1593 673.127 18.542C673.509 18.9153 673.701 19.424 673.701 20.068C673.701 20.7027 673.509 21.2113 673.127 21.594C672.753 21.9767 672.268 22.168 671.671 22.168C671.073 22.168 670.583 21.9813 670.201 21.608C669.818 21.2253 669.627 20.712 669.627 20.068ZM671.657 18.766C671.339 18.766 671.087 18.878 670.901 19.102C670.714 19.3167 670.621 19.6387 670.621 20.068C670.621 20.488 670.714 20.81 670.901 21.034C671.087 21.2487 671.339 21.356 671.657 21.356C671.974 21.356 672.226 21.2487 672.413 21.034C672.599 20.81 672.693 20.488 672.693 20.068C672.693 19.6387 672.599 19.3167 672.413 19.102C672.226 18.878 671.974 18.766 671.657 18.766Z" fill="white" fill-opacity="0.7"/>
<rect x="0.6521" y="36.4375" width="666.596" height="16.5625" rx="8" fill="#444444"/>
<rect x="2.30615" y="38.6458" width="663.288" height="12.1458" rx="6.07292" fill="#222222"/>
<rect x="3.96033" y="40.8542" width="659.98" height="7.72917" rx="3.86458" fill="#0B9EEA"/>
</svg>
