<svg width="679" height="48" viewBox="0 0 679 48" fill="none" xmlns="http://www.w3.org/2000/svg">
<path d="M9.036 11.364V19.968C9.036 21.3 8.658 22.326 7.902 23.046C7.158 23.766 6.15 24.126 4.878 24.126C3.546 24.126 2.478 23.748 1.674 22.992C0.87 22.236 0.468 21.162 0.468 19.77H3.528C3.528 20.298 3.636 20.7 3.852 20.976C4.068 21.24 4.38 21.372 4.788 21.372C5.16 21.372 5.448 21.252 5.652 21.012C5.856 20.772 5.958 20.424 5.958 19.968V11.364H9.036ZM10.9103 18.96C10.9103 17.928 11.1023 17.022 11.4863 16.242C11.8823 15.462 12.4163 14.862 13.0883 14.442C13.7603 14.022 14.5103 13.812 15.3383 13.812C16.0463 13.812 16.6643 13.956 17.1923 14.244C17.7323 14.532 18.1463 14.91 18.4343 15.378V13.956H21.5123V24H18.4343V22.578C18.1343 23.046 17.7143 23.424 17.1743 23.712C16.6463 24 16.0283 24.144 15.3203 24.144C14.5043 24.144 13.7603 23.934 13.0883 23.514C12.4163 23.082 11.8823 22.476 11.4863 21.696C11.1023 20.904 10.9103 19.992 10.9103 18.96ZM18.4343 18.978C18.4343 18.21 18.2183 17.604 17.7863 17.16C17.3663 16.716 16.8503 16.494 16.2383 16.494C15.6263 16.494 15.1043 16.716 14.6723 17.16C14.2523 17.592 14.0423 18.192 14.0423 18.96C14.0423 19.728 14.2523 20.34 14.6723 20.796C15.1043 21.24 15.6263 21.462 16.2383 21.462C16.8503 21.462 17.3663 21.24 17.7863 20.796C18.2183 20.352 18.4343 19.746 18.4343 18.978ZM28.257 21.12L30.435 13.956H33.711L30.147 24H26.349L22.785 13.956H26.079L28.257 21.12ZM34.3946 18.96C34.3946 17.928 34.5866 17.022 34.9706 16.242C35.3666 15.462 35.9006 14.862 36.5726 14.442C37.2446 14.022 37.9946 13.812 38.8226 13.812C39.5306 13.812 40.1486 13.956 40.6766 14.244C41.2166 14.532 41.6306 14.91 41.9186 15.378V13.956H44.9966V24H41.9186V22.578C41.6186 23.046 41.1986 23.424 40.6586 23.712C40.1306 24 39.5126 24.144 38.8046 24.144C37.9886 24.144 37.2446 23.934 36.5726 23.514C35.9006 23.082 35.3666 22.476 34.9706 21.696C34.5866 20.904 34.3946 19.992 34.3946 18.96ZM41.9186 18.978C41.9186 18.21 41.7026 17.604 41.2706 17.16C40.8506 16.716 40.3346 16.494 39.7226 16.494C39.1106 16.494 38.5886 16.716 38.1566 17.16C37.7366 17.592 37.5266 18.192 37.5266 18.96C37.5266 19.728 37.7366 20.34 38.1566 20.796C38.5886 21.24 39.1106 21.462 39.7226 21.462C40.3346 21.462 40.8506 21.24 41.2706 20.796C41.7026 20.352 41.9186 19.746 41.9186 18.978ZM51.7954 24.126C50.8714 24.126 50.0434 23.976 49.3114 23.676C48.5794 23.376 47.9914 22.932 47.5474 22.344C47.1154 21.756 46.8874 21.048 46.8634 20.22H50.1394C50.1874 20.688 50.3494 21.048 50.6254 21.3C50.9014 21.54 51.2614 21.66 51.7054 21.66C52.1614 21.66 52.5214 21.558 52.7854 21.354C53.0494 21.138 53.1814 20.844 53.1814 20.472C53.1814 20.16 53.0734 19.902 52.8574 19.698C52.6534 19.494 52.3954 19.326 52.0834 19.194C51.7834 19.062 51.3514 18.912 50.7874 18.744C49.9714 18.492 49.3054 18.24 48.7894 17.988C48.2734 17.736 47.8294 17.364 47.4574 16.872C47.0854 16.38 46.8994 15.738 46.8994 14.946C46.8994 13.77 47.3254 12.852 48.1774 12.192C49.0294 11.52 50.1394 11.184 51.5074 11.184C52.8994 11.184 54.0214 11.52 54.8734 12.192C55.7254 12.852 56.1814 13.776 56.2414 14.964H52.9114C52.8874 14.556 52.7374 14.238 52.4614 14.01C52.1854 13.77 51.8314 13.65 51.3994 13.65C51.0274 13.65 50.7274 13.752 50.4994 13.956C50.2714 14.148 50.1574 14.43 50.1574 14.802C50.1574 15.21 50.3494 15.528 50.7334 15.756C51.1174 15.984 51.7174 16.23 52.5334 16.494C53.3494 16.77 54.0094 17.034 54.5134 17.286C55.0294 17.538 55.4734 17.904 55.8454 18.384C56.2174 18.864 56.4034 19.482 56.4034 20.238C56.4034 20.958 56.2174 21.612 55.8454 22.2C55.4854 22.788 54.9574 23.256 54.2614 23.604C53.5654 23.952 52.7434 24.126 51.7954 24.126ZM57.6856 18.978C57.6856 17.934 57.8956 17.022 58.3156 16.242C58.7476 15.462 59.3416 14.862 60.0976 14.442C60.8656 14.022 61.7416 13.812 62.7256 13.812C63.9856 13.812 65.0356 14.142 65.8756 14.802C66.7276 15.462 67.2856 16.392 67.5496 17.592H64.2736C63.9976 16.824 63.4636 16.44 62.6716 16.44C62.1076 16.44 61.6576 16.662 61.3216 17.106C60.9856 17.538 60.8176 18.162 60.8176 18.978C60.8176 19.794 60.9856 20.424 61.3216 20.868C61.6576 21.3 62.1076 21.516 62.6716 21.516C63.4636 21.516 63.9976 21.132 64.2736 20.364H67.5496C67.2856 21.54 66.7276 22.464 65.8756 23.136C65.0236 23.808 63.9736 24.144 62.7256 24.144C61.7416 24.144 60.8656 23.934 60.0976 23.514C59.3416 23.094 58.7476 22.494 58.3156 21.714C57.8956 20.934 57.6856 20.022 57.6856 18.978ZM72.2741 15.63C72.6341 15.078 73.0841 14.646 73.6241 14.334C74.1641 14.01 74.7641 13.848 75.4241 13.848V17.106H74.5781C73.8101 17.106 73.2341 17.274 72.8501 17.61C72.4661 17.934 72.2741 18.51 72.2741 19.338V24H69.1961V13.956H72.2741V15.63ZM78.4433 12.912C77.9033 12.912 77.4593 12.756 77.1113 12.444C76.7753 12.12 76.6073 11.724 76.6073 11.256C76.6073 10.776 76.7753 10.38 77.1113 10.068C77.4593 9.744 77.9033 9.582 78.4433 9.582C78.9713 9.582 79.4033 9.744 79.7393 10.068C80.0873 10.38 80.2613 10.776 80.2613 11.256C80.2613 11.724 80.0873 12.12 79.7393 12.444C79.4033 12.756 78.9713 12.912 78.4433 12.912ZM79.9733 13.956V24H76.8953V13.956H79.9733ZM85.2819 15.378C85.5819 14.91 85.9959 14.532 86.5239 14.244C87.0519 13.956 87.6699 13.812 88.3779 13.812C89.2059 13.812 89.9559 14.022 90.6279 14.442C91.2999 14.862 91.8279 15.462 92.2119 16.242C92.6079 17.022 92.8059 17.928 92.8059 18.96C92.8059 19.992 92.6079 20.904 92.2119 21.696C91.8279 22.476 91.2999 23.082 90.6279 23.514C89.9559 23.934 89.2059 24.144 88.3779 24.144C87.6819 24.144 87.0639 24 86.5239 23.712C85.9959 23.424 85.5819 23.052 85.2819 22.596V28.788H82.2039V13.956H85.2819V15.378ZM89.6739 18.96C89.6739 18.192 89.4579 17.592 89.0259 17.16C88.6059 16.716 88.0839 16.494 87.4599 16.494C86.8479 16.494 86.3259 16.716 85.8939 17.16C85.4739 17.604 85.2639 18.21 85.2639 18.978C85.2639 19.746 85.4739 20.352 85.8939 20.796C86.3259 21.24 86.8479 21.462 87.4599 21.462C88.0719 21.462 88.5939 21.24 89.0259 20.796C89.4579 20.34 89.6739 19.728 89.6739 18.96ZM100.019 21.39V24H98.4527C97.3367 24 96.4667 23.73 95.8427 23.19C95.2187 22.638 94.9067 21.744 94.9067 20.508V16.512H93.6827V13.956H94.9067V11.508H97.9847V13.956H100.001V16.512H97.9847V20.544C97.9847 20.844 98.0567 21.06 98.2007 21.192C98.3447 21.324 98.5847 21.39 98.9207 21.39H100.019Z" fill="black"/>
<path d="M643.215 19.746V18.78L648.129 11.976H649.655V18.64H651.055V19.746H649.655V22H648.395V19.746H643.215ZM648.451 13.306L644.685 18.64H648.451V13.306ZM652.327 16.834C652.327 15.2287 652.589 13.978 653.111 13.082C653.634 12.1767 654.549 11.724 655.855 11.724C657.153 11.724 658.063 12.1767 658.585 13.082C659.108 13.978 659.369 15.2287 659.369 16.834C659.369 18.4673 659.108 19.7367 658.585 20.642C658.063 21.5473 657.153 22 655.855 22C654.549 22 653.634 21.5473 653.111 20.642C652.589 19.7367 652.327 18.4673 652.327 16.834ZM658.109 16.834C658.109 16.022 658.053 15.336 657.941 14.776C657.839 14.2067 657.619 13.7493 657.283 13.404C656.957 13.0587 656.481 12.886 655.855 12.886C655.221 12.886 654.735 13.0587 654.399 13.404C654.073 13.7493 653.853 14.2067 653.741 14.776C653.639 15.336 653.587 16.022 653.587 16.834C653.587 17.674 653.639 18.3787 653.741 18.948C653.853 19.5173 654.073 19.9747 654.399 20.32C654.735 20.6653 655.221 20.838 655.855 20.838C656.481 20.838 656.957 20.6653 657.283 20.32C657.619 19.9747 657.839 19.5173 657.941 18.948C658.053 18.3787 658.109 17.674 658.109 16.834ZM660.838 14.16C660.838 13.5253 661.03 13.0213 661.412 12.648C661.795 12.2653 662.285 12.074 662.882 12.074C663.48 12.074 663.97 12.2653 664.352 12.648C664.735 13.0213 664.926 13.5253 664.926 14.16C664.926 14.804 664.735 15.3173 664.352 15.7C663.97 16.0733 663.48 16.26 662.882 16.26C662.285 16.26 661.795 16.0733 661.412 15.7C661.03 15.3173 660.838 14.804 660.838 14.16ZM669.014 12.228L663.344 22H662.084L667.754 12.228H669.014ZM662.882 12.858C662.565 12.858 662.313 12.97 662.126 13.194C661.949 13.4087 661.86 13.7307 661.86 14.16C661.86 14.5893 661.949 14.916 662.126 15.14C662.313 15.364 662.565 15.476 662.882 15.476C663.2 15.476 663.452 15.364 663.638 15.14C663.825 14.9067 663.918 14.58 663.918 14.16C663.918 13.7307 663.825 13.4087 663.638 13.194C663.452 12.97 663.2 12.858 662.882 12.858ZM666.2 20.068C666.2 19.424 666.392 18.9153 666.774 18.542C667.157 18.1593 667.647 17.968 668.244 17.968C668.842 17.968 669.327 18.1593 669.7 18.542C670.083 18.9153 670.274 19.424 670.274 20.068C670.274 20.7027 670.083 21.2113 669.7 21.594C669.327 21.9767 668.842 22.168 668.244 22.168C667.647 22.168 667.157 21.9813 666.774 21.608C666.392 21.2253 666.2 20.712 666.2 20.068ZM668.23 18.766C667.913 18.766 667.661 18.878 667.474 19.102C667.288 19.3167 667.194 19.6387 667.194 20.068C667.194 20.488 667.288 20.81 667.474 21.034C667.661 21.2487 667.913 21.356 668.23 21.356C668.548 21.356 668.8 21.2487 668.986 21.034C669.173 20.81 669.266 20.488 669.266 20.068C669.266 19.6387 669.173 19.3167 668.986 19.102C668.8 18.878 668.548 18.766 668.23 18.766Z" fill="black" fill-opacity="0.7"/>
<rect y="33" width="665.784" height="15" rx="7.5" fill="#444444"/>
<rect x="1.65204" y="35" width="662.479" height="11" rx="5.5" fill="#222222"/>
<rect x="3.01483" y="37.2052" width="273.474" height="5.92887" rx="2.96444" transform="rotate(-0.0728882 3.01483 37.2052)" fill="#0B9EEA"/>
</svg>
