<svg width="106" height="31" viewBox="0 0 106 31" fill="none" xmlns="http://www.w3.org/2000/svg">
<path d="M1 30C16.3803 25.0188 58.7127 16.7641 105 23.5955" stroke="#0B9EEA" stroke-linecap="round" stroke-linejoin="round"/>
<path d="M0.965909 15V6.27273H3.27273V7.8125H3.375C3.55682 7.30114 3.85985 6.89773 4.28409 6.60227C4.70833 6.30682 5.21591 6.15909 5.80682 6.15909C6.4053 6.15909 6.91477 6.30871 7.33523 6.60795C7.75568 6.90341 8.03599 7.30492 8.17614 7.8125H8.26705C8.44508 7.3125 8.76705 6.91288 9.23295 6.61364C9.70265 6.31061 10.2576 6.15909 10.8977 6.15909C11.7121 6.15909 12.3731 6.41856 12.8807 6.9375C13.392 7.45265 13.6477 8.18371 13.6477 9.13068V15H11.233V9.60795C11.233 9.12311 11.1042 8.75947 10.8466 8.51705C10.589 8.27462 10.267 8.15341 9.88068 8.15341C9.44129 8.15341 9.09848 8.29356 8.85227 8.57386C8.60606 8.85038 8.48295 9.21591 8.48295 9.67045V15H6.13636V9.55682C6.13636 9.12879 6.01326 8.78788 5.76705 8.53409C5.52462 8.2803 5.20455 8.15341 4.80682 8.15341C4.53788 8.15341 4.29545 8.22159 4.07955 8.35795C3.86742 8.49053 3.69886 8.67803 3.57386 8.92045C3.44886 9.15909 3.38636 9.43939 3.38636 9.76136V15H0.965909ZM19.5369 15.1705C18.6392 15.1705 17.8665 14.9886 17.2188 14.625C16.5748 14.2576 16.0786 13.7386 15.7301 13.0682C15.3816 12.3939 15.2074 11.5966 15.2074 10.6761C15.2074 9.77841 15.3816 8.99053 15.7301 8.3125C16.0786 7.63447 16.5691 7.10606 17.2017 6.72727C17.8381 6.34848 18.5843 6.15909 19.4403 6.15909C20.0161 6.15909 20.5521 6.25189 21.0483 6.4375C21.5483 6.61932 21.9839 6.89394 22.3551 7.26136C22.7301 7.62879 23.0218 8.09091 23.2301 8.64773C23.4384 9.20076 23.5426 9.84848 23.5426 10.5909V11.2557H16.1733V9.75568H21.2642C21.2642 9.4072 21.1884 9.09848 21.0369 8.82955C20.8854 8.56061 20.6752 8.35038 20.4062 8.19886C20.1411 8.04356 19.8324 7.96591 19.4801 7.96591C19.1127 7.96591 18.7869 8.05114 18.5028 8.22159C18.2225 8.38826 18.0028 8.61364 17.8438 8.89773C17.6847 9.17803 17.6032 9.49053 17.5994 9.83523V11.2614C17.5994 11.6932 17.679 12.0663 17.8381 12.3807C18.0009 12.6951 18.2301 12.9375 18.5256 13.108C18.821 13.2784 19.1714 13.3636 19.5767 13.3636C19.8456 13.3636 20.0919 13.3258 20.3153 13.25C20.5388 13.1742 20.7301 13.0606 20.8892 12.9091C21.0483 12.7576 21.1695 12.572 21.2528 12.3523L23.4915 12.5C23.3778 13.0379 23.1449 13.5076 22.7926 13.9091C22.4441 14.3068 21.9934 14.6174 21.4403 14.8409C20.8911 15.0606 20.2566 15.1705 19.5369 15.1705ZM28.3381 15.142C27.6752 15.142 27.0748 14.9716 26.5369 14.6307C26.0028 14.286 25.5786 13.7803 25.2642 13.1136C24.9536 12.4432 24.7983 11.6212 24.7983 10.6477C24.7983 9.64773 24.9593 8.81629 25.2812 8.15341C25.6032 7.48674 26.0313 6.98864 26.5653 6.65909C27.1032 6.32576 27.6922 6.15909 28.3324 6.15909C28.821 6.15909 29.2282 6.24242 29.554 6.40909C29.8835 6.57197 30.1487 6.77652 30.3494 7.02273C30.554 7.26515 30.7093 7.50379 30.8153 7.73864H30.8892V3.36364H33.304V15H30.9176V13.6023H30.8153C30.7017 13.8447 30.5407 14.0852 30.3324 14.3239C30.1278 14.5587 29.8608 14.7538 29.5312 14.9091C29.2055 15.0644 28.8078 15.142 28.3381 15.142ZM29.1051 13.2159C29.4953 13.2159 29.8248 13.1098 30.0938 12.8977C30.3665 12.6818 30.5748 12.3807 30.7188 11.9943C30.8665 11.608 30.9403 11.1553 30.9403 10.6364C30.9403 10.1174 30.8684 9.66667 30.7244 9.28409C30.5805 8.90151 30.3722 8.60606 30.0994 8.39773C29.8267 8.18939 29.4953 8.08523 29.1051 8.08523C28.7074 8.08523 28.3722 8.19318 28.0994 8.40909C27.8267 8.625 27.6203 8.92424 27.4801 9.30682C27.34 9.68939 27.2699 10.1326 27.2699 10.6364C27.2699 11.1439 27.34 11.5928 27.4801 11.983C27.6241 12.3693 27.8305 12.6723 28.0994 12.892C28.3722 13.108 28.7074 13.2159 29.1051 13.2159ZM40.3338 3.36364V15H37.8736V5.69886H37.8054L35.1406 7.36932V5.1875L38.0213 3.36364H40.3338ZM50.3835 8.76136L48.1676 8.89773C48.1297 8.70833 48.0483 8.53788 47.9233 8.38636C47.7983 8.23106 47.6335 8.10795 47.429 8.01705C47.2282 7.92235 46.9877 7.875 46.7074 7.875C46.3324 7.875 46.0161 7.95455 45.7585 8.11364C45.5009 8.26894 45.3722 8.47727 45.3722 8.73864C45.3722 8.94697 45.4555 9.12311 45.6222 9.26705C45.7888 9.41098 46.0748 9.52652 46.4801 9.61364L48.0597 9.93182C48.9081 10.1061 49.5407 10.3864 49.9574 10.7727C50.3741 11.1591 50.5824 11.6667 50.5824 12.2955C50.5824 12.8674 50.4138 13.3693 50.0767 13.8011C49.7434 14.233 49.285 14.5701 48.7017 14.8125C48.1222 15.0511 47.4536 15.1705 46.696 15.1705C45.5407 15.1705 44.6203 14.9299 43.9347 14.4489C43.2528 13.964 42.8532 13.3049 42.7358 12.4716L45.1165 12.3466C45.1884 12.6989 45.3627 12.9678 45.6392 13.1534C45.9157 13.3352 46.2699 13.4261 46.7017 13.4261C47.1259 13.4261 47.4669 13.3447 47.7244 13.1818C47.9858 13.0152 48.1184 12.8011 48.1222 12.5398C48.1184 12.3201 48.0256 12.1402 47.8438 12C47.6619 11.8561 47.3816 11.7462 47.0028 11.6705L45.4915 11.3693C44.6392 11.1989 44.0047 10.9034 43.5881 10.483C43.1752 10.0625 42.9688 9.52652 42.9688 8.875C42.9688 8.31439 43.1203 7.83144 43.4233 7.42614C43.7301 7.02083 44.16 6.70833 44.7131 6.48864C45.2699 6.26894 45.9214 6.15909 46.6676 6.15909C47.7699 6.15909 48.6373 6.39205 49.2699 6.85795C49.9063 7.32386 50.2775 7.95833 50.3835 8.76136ZM56.0838 15.1705C55.1861 15.1705 54.4134 14.9886 53.7656 14.625C53.1217 14.2576 52.6255 13.7386 52.277 13.0682C51.9285 12.3939 51.7543 11.5966 51.7543 10.6761C51.7543 9.77841 51.9285 8.99053 52.277 8.3125C52.6255 7.63447 53.116 7.10606 53.7486 6.72727C54.3849 6.34848 55.1312 6.15909 55.9872 6.15909C56.563 6.15909 57.099 6.25189 57.5952 6.4375C58.0952 6.61932 58.5308 6.89394 58.902 7.26136C59.277 7.62879 59.5687 8.09091 59.777 8.64773C59.9853 9.20076 60.0895 9.84848 60.0895 10.5909V11.2557H52.7202V9.75568H57.8111C57.8111 9.4072 57.7353 9.09848 57.5838 8.82955C57.4323 8.56061 57.2221 8.35038 56.9531 8.19886C56.688 8.04356 56.3793 7.96591 56.027 7.96591C55.6596 7.96591 55.3338 8.05114 55.0497 8.22159C54.7694 8.38826 54.5497 8.61364 54.3906 8.89773C54.2315 9.17803 54.1501 9.49053 54.1463 9.83523V11.2614C54.1463 11.6932 54.2259 12.0663 54.3849 12.3807C54.5478 12.6951 54.777 12.9375 55.0724 13.108C55.3679 13.2784 55.7183 13.3636 56.1236 13.3636C56.3925 13.3636 56.6387 13.3258 56.8622 13.25C57.0857 13.1742 57.277 13.0606 57.4361 12.9091C57.5952 12.7576 57.7164 12.572 57.7997 12.3523L60.0384 12.5C59.9247 13.0379 59.6918 13.5076 59.3395 13.9091C58.991 14.3068 58.5402 14.6174 57.9872 14.8409C57.438 15.0606 56.8035 15.1705 56.0838 15.1705ZM65.6009 18.4545C64.8168 18.4545 64.1444 18.3466 63.5838 18.1307C63.027 17.9186 62.5838 17.6288 62.2543 17.2614C61.9247 16.8939 61.7107 16.4811 61.6122 16.0227L63.8509 15.7216C63.919 15.8958 64.027 16.0587 64.1747 16.2102C64.3224 16.3617 64.5175 16.483 64.7599 16.5739C65.0062 16.6686 65.3054 16.7159 65.6577 16.7159C66.1842 16.7159 66.6179 16.5871 66.9588 16.3295C67.3035 16.0758 67.4759 15.6496 67.4759 15.0511V13.4545H67.3736C67.2675 13.697 67.1084 13.9261 66.8963 14.142C66.6842 14.358 66.4115 14.5341 66.0781 14.6705C65.7448 14.8068 65.3471 14.875 64.8849 14.875C64.2296 14.875 63.633 14.7235 63.0952 14.4205C62.5611 14.1136 62.1349 13.6458 61.8168 13.017C61.5024 12.3845 61.3452 11.5852 61.3452 10.6193C61.3452 9.63068 61.5062 8.80492 61.8281 8.14205C62.1501 7.47917 62.5781 6.98295 63.1122 6.65341C63.6501 6.32386 64.2391 6.15909 64.8793 6.15909C65.3679 6.15909 65.777 6.24242 66.1065 6.40909C66.4361 6.57197 66.7012 6.77652 66.902 7.02273C67.1065 7.26515 67.2637 7.50379 67.3736 7.73864H67.4645V6.27273H69.8679V15.0852C69.8679 15.8277 69.6861 16.4489 69.3224 16.9489C68.9588 17.4489 68.455 17.8239 67.8111 18.0739C67.1709 18.3277 66.4342 18.4545 65.6009 18.4545ZM65.652 13.0568C66.0421 13.0568 66.3717 12.9602 66.6406 12.767C66.9134 12.5701 67.1217 12.2898 67.2656 11.9261C67.4134 11.5587 67.4872 11.1193 67.4872 10.608C67.4872 10.0966 67.4152 9.65341 67.2713 9.27841C67.1274 8.89962 66.919 8.60606 66.6463 8.39773C66.3736 8.18939 66.0421 8.08523 65.652 8.08523C65.2543 8.08523 64.919 8.19318 64.6463 8.40909C64.3736 8.62121 64.1671 8.91667 64.027 9.29545C63.8868 9.67424 63.8168 10.1117 63.8168 10.608C63.8168 11.1117 63.8868 11.5473 64.027 11.9148C64.1709 12.2784 64.3774 12.5606 64.6463 12.7614C64.919 12.9583 65.2543 13.0568 65.652 13.0568ZM74.2145 9.95455V15H71.794V3.36364H74.1463V7.8125H74.2486C74.4455 7.29735 74.7637 6.89394 75.2031 6.60227C75.6425 6.30682 76.1937 6.15909 76.8565 6.15909C77.4626 6.15909 77.991 6.29167 78.4418 6.55682C78.8963 6.81818 79.2486 7.19508 79.4986 7.6875C79.7524 8.17614 79.8774 8.76136 79.8736 9.44318V15H77.4531V9.875C77.4569 9.33712 77.3205 8.91856 77.044 8.61932C76.7713 8.32008 76.3887 8.17045 75.8963 8.17045C75.5668 8.17045 75.2751 8.24053 75.0213 8.38068C74.7713 8.52083 74.5743 8.72538 74.4304 8.99432C74.2902 9.25947 74.2183 9.57955 74.2145 9.95455ZM81.7784 15V6.27273H84.1989V15H81.7784ZM82.9943 5.14773C82.6345 5.14773 82.3258 5.02841 82.0682 4.78977C81.8144 4.54735 81.6875 4.25758 81.6875 3.92045C81.6875 3.58712 81.8144 3.30114 82.0682 3.0625C82.3258 2.82008 82.6345 2.69886 82.9943 2.69886C83.3542 2.69886 83.661 2.82008 83.9148 3.0625C84.1723 3.30114 84.3011 3.58712 84.3011 3.92045C84.3011 4.25758 84.1723 4.54735 83.9148 4.78977C83.661 5.02841 83.3542 5.14773 82.9943 5.14773ZM86.1378 15V6.27273H88.4844V7.79545H88.5753C88.7344 7.25379 89.0014 6.8447 89.3764 6.56818C89.7514 6.28788 90.1832 6.14773 90.6719 6.14773C90.7931 6.14773 90.9238 6.1553 91.0639 6.17045C91.2041 6.18561 91.3272 6.20644 91.4332 6.23295V8.38068C91.3196 8.34659 91.1624 8.31629 90.9616 8.28977C90.7609 8.26326 90.5772 8.25 90.4105 8.25C90.0545 8.25 89.7363 8.32765 89.456 8.48295C89.1795 8.63447 88.9598 8.84659 88.7969 9.11932C88.6378 9.39205 88.5582 9.70644 88.5582 10.0625V15H86.1378ZM96.9119 15.1591C96.1089 15.1591 95.393 15.0114 94.7642 14.7159C94.1392 14.4205 93.643 14.0133 93.2756 13.4943C92.9081 12.9754 92.7169 12.3807 92.7017 11.7102H95.0881C95.1146 12.161 95.304 12.5265 95.6562 12.8068C96.0085 13.0871 96.4271 13.2273 96.9119 13.2273C97.2983 13.2273 97.6392 13.142 97.9347 12.9716C98.2339 12.7973 98.4669 12.5568 98.6335 12.25C98.804 11.9394 98.8892 11.5833 98.8892 11.1818C98.8892 10.7727 98.8021 10.4129 98.6278 10.1023C98.4574 9.79167 98.2206 9.54924 97.9176 9.375C97.6146 9.20076 97.268 9.11174 96.8778 9.10795C96.5369 9.10795 96.2055 9.17803 95.8835 9.31818C95.5653 9.45833 95.3172 9.64962 95.1392 9.89205L92.9517 9.5L93.5028 3.36364H100.616V5.375H95.5312L95.2301 8.28977H95.2983C95.5028 8.00189 95.8116 7.76326 96.2244 7.57386C96.6373 7.38447 97.0994 7.28977 97.6108 7.28977C98.3116 7.28977 98.9366 7.45455 99.4858 7.78409C100.035 8.11364 100.469 8.56629 100.787 9.14205C101.105 9.71402 101.262 10.3731 101.259 11.1193C101.262 11.9034 101.08 12.6004 100.713 13.2102C100.349 13.8163 99.84 14.2936 99.1847 14.642C98.5331 14.9867 97.7756 15.1591 96.9119 15.1591Z" fill="#0B9EEA"/>
</svg>
