<svg width="679" height="48" viewBox="0 0 679 48" fill="none" xmlns="http://www.w3.org/2000/svg">
<path d="M7.56 24L4.932 19.23H4.194V24H1.116V11.364H6.282C7.278 11.364 8.124 11.538 8.82 11.886C9.528 12.234 10.056 12.714 10.404 13.326C10.752 13.926 10.926 14.598 10.926 15.342C10.926 16.182 10.686 16.932 10.206 17.592C9.738 18.252 9.042 18.72 8.118 18.996L11.034 24H7.56ZM4.194 17.052H6.102C6.666 17.052 7.086 16.914 7.362 16.638C7.65 16.362 7.794 15.972 7.794 15.468C7.794 14.988 7.65 14.61 7.362 14.334C7.086 14.058 6.666 13.92 6.102 13.92H4.194V17.052ZM22.3262 18.816C22.3262 19.104 22.3082 19.404 22.2722 19.716H15.3062C15.3542 20.34 15.5522 20.82 15.9002 21.156C16.2602 21.48 16.6982 21.642 17.2142 21.642C17.9822 21.642 18.5162 21.318 18.8162 20.67H22.0922C21.9242 21.33 21.6182 21.924 21.1742 22.452C20.7422 22.98 20.1962 23.394 19.5362 23.694C18.8762 23.994 18.1382 24.144 17.3222 24.144C16.3382 24.144 15.4622 23.934 14.6942 23.514C13.9262 23.094 13.3262 22.494 12.8942 21.714C12.4622 20.934 12.2462 20.022 12.2462 18.978C12.2462 17.934 12.4562 17.022 12.8762 16.242C13.3082 15.462 13.9082 14.862 14.6762 14.442C15.4442 14.022 16.3262 13.812 17.3222 13.812C18.2942 13.812 19.1582 14.016 19.9142 14.424C20.6702 14.832 21.2582 15.414 21.6782 16.17C22.1102 16.926 22.3262 17.808 22.3262 18.816ZM19.1762 18.006C19.1762 17.478 18.9962 17.058 18.6362 16.746C18.2762 16.434 17.8262 16.278 17.2862 16.278C16.7702 16.278 16.3322 16.428 15.9722 16.728C15.6242 17.028 15.4082 17.454 15.3242 18.006H19.1762ZM23.338 18.96C23.338 17.928 23.53 17.022 23.914 16.242C24.31 15.462 24.844 14.862 25.516 14.442C26.188 14.022 26.938 13.812 27.766 13.812C28.474 13.812 29.092 13.956 29.62 14.244C30.16 14.532 30.574 14.91 30.862 15.378V13.956H33.94V24H30.862V22.578C30.562 23.046 30.142 23.424 29.602 23.712C29.074 24 28.456 24.144 27.748 24.144C26.932 24.144 26.188 23.934 25.516 23.514C24.844 23.082 24.31 22.476 23.914 21.696C23.53 20.904 23.338 19.992 23.338 18.96ZM30.862 18.978C30.862 18.21 30.646 17.604 30.214 17.16C29.794 16.716 29.278 16.494 28.666 16.494C28.054 16.494 27.532 16.716 27.1 17.16C26.68 17.592 26.47 18.192 26.47 18.96C26.47 19.728 26.68 20.34 27.1 20.796C27.532 21.24 28.054 21.462 28.666 21.462C29.278 21.462 29.794 21.24 30.214 20.796C30.646 20.352 30.862 19.746 30.862 18.978ZM35.5548 18.978C35.5548 17.934 35.7648 17.022 36.1848 16.242C36.6168 15.462 37.2108 14.862 37.9668 14.442C38.7348 14.022 39.6108 13.812 40.5948 13.812C41.8548 13.812 42.9048 14.142 43.7448 14.802C44.5968 15.462 45.1548 16.392 45.4188 17.592H42.1428C41.8668 16.824 41.3328 16.44 40.5408 16.44C39.9768 16.44 39.5268 16.662 39.1908 17.106C38.8548 17.538 38.6868 18.162 38.6868 18.978C38.6868 19.794 38.8548 20.424 39.1908 20.868C39.5268 21.3 39.9768 21.516 40.5408 21.516C41.3328 21.516 41.8668 21.132 42.1428 20.364H45.4188C45.1548 21.54 44.5968 22.464 43.7448 23.136C42.8928 23.808 41.8428 24.144 40.5948 24.144C39.6108 24.144 38.7348 23.934 37.9668 23.514C37.2108 23.094 36.6168 22.494 36.1848 21.714C35.7648 20.934 35.5548 20.022 35.5548 18.978ZM52.6632 21.39V24H51.0972C49.9812 24 49.1112 23.73 48.4872 23.19C47.8632 22.638 47.5512 21.744 47.5512 20.508V16.512H46.3272V13.956H47.5512V11.508H50.6292V13.956H52.6452V16.512H50.6292V20.544C50.6292 20.844 50.7012 21.06 50.8452 21.192C50.9892 21.324 51.2292 21.39 51.5652 21.39H52.6632Z" fill="white"/>
<path d="M643.215 19.746V18.78L648.129 11.976H649.655V18.64H651.055V19.746H649.655V22H648.395V19.746H643.215ZM648.451 13.306L644.685 18.64H648.451V13.306ZM652.327 16.834C652.327 15.2287 652.589 13.978 653.111 13.082C653.634 12.1767 654.549 11.724 655.855 11.724C657.153 11.724 658.063 12.1767 658.585 13.082C659.108 13.978 659.369 15.2287 659.369 16.834C659.369 18.4673 659.108 19.7367 658.585 20.642C658.063 21.5473 657.153 22 655.855 22C654.549 22 653.634 21.5473 653.111 20.642C652.589 19.7367 652.327 18.4673 652.327 16.834ZM658.109 16.834C658.109 16.022 658.053 15.336 657.941 14.776C657.839 14.2067 657.619 13.7493 657.283 13.404C656.957 13.0587 656.481 12.886 655.855 12.886C655.221 12.886 654.735 13.0587 654.399 13.404C654.073 13.7493 653.853 14.2067 653.741 14.776C653.639 15.336 653.587 16.022 653.587 16.834C653.587 17.674 653.639 18.3787 653.741 18.948C653.853 19.5173 654.073 19.9747 654.399 20.32C654.735 20.6653 655.221 20.838 655.855 20.838C656.481 20.838 656.957 20.6653 657.283 20.32C657.619 19.9747 657.839 19.5173 657.941 18.948C658.053 18.3787 658.109 17.674 658.109 16.834ZM660.838 14.16C660.838 13.5253 661.03 13.0213 661.412 12.648C661.795 12.2653 662.285 12.074 662.882 12.074C663.48 12.074 663.97 12.2653 664.352 12.648C664.735 13.0213 664.926 13.5253 664.926 14.16C664.926 14.804 664.735 15.3173 664.352 15.7C663.97 16.0733 663.48 16.26 662.882 16.26C662.285 16.26 661.795 16.0733 661.412 15.7C661.03 15.3173 660.838 14.804 660.838 14.16ZM669.014 12.228L663.344 22H662.084L667.754 12.228H669.014ZM662.882 12.858C662.565 12.858 662.313 12.97 662.126 13.194C661.949 13.4087 661.86 13.7307 661.86 14.16C661.86 14.5893 661.949 14.916 662.126 15.14C662.313 15.364 662.565 15.476 662.882 15.476C663.2 15.476 663.452 15.364 663.638 15.14C663.825 14.9067 663.918 14.58 663.918 14.16C663.918 13.7307 663.825 13.4087 663.638 13.194C663.452 12.97 663.2 12.858 662.882 12.858ZM666.2 20.068C666.2 19.424 666.392 18.9153 666.774 18.542C667.157 18.1593 667.647 17.968 668.244 17.968C668.842 17.968 669.327 18.1593 669.7 18.542C670.083 18.9153 670.274 19.424 670.274 20.068C670.274 20.7027 670.083 21.2113 669.7 21.594C669.327 21.9767 668.842 22.168 668.244 22.168C667.647 22.168 667.157 21.9813 666.774 21.608C666.392 21.2253 666.2 20.712 666.2 20.068ZM668.23 18.766C667.913 18.766 667.661 18.878 667.474 19.102C667.288 19.3167 667.194 19.6387 667.194 20.068C667.194 20.488 667.288 20.81 667.474 21.034C667.661 21.2487 667.913 21.356 668.23 21.356C668.548 21.356 668.8 21.2487 668.986 21.034C669.173 20.81 669.266 20.488 669.266 20.068C669.266 19.6387 669.173 19.3167 668.986 19.102C668.8 18.878 668.548 18.766 668.23 18.766Z" fill="white" fill-opacity="0.7"/>
<rect y="33" width="665.784" height="15" rx="7.5" fill="#222222"/>
<rect x="1.65204" y="35" width="662.479" height="11" rx="5.5" fill="#444444"/>
<rect x="3.3042" y="38" width="273.417" height="5" rx="2.5" fill="#0B9EEA"/>
</svg>
