<svg width="679" height="48" viewBox="0 0 679 48" fill="none" xmlns="http://www.w3.org/2000/svg">
<path d="M10.206 11.364V13.83H6.858V24H3.78V13.83H0.432V11.364H10.206ZM11.1388 18.96C11.1388 17.928 11.3308 17.022 11.7148 16.242C12.1108 15.462 12.6448 14.862 13.3168 14.442C13.9888 14.022 14.7388 13.812 15.5668 13.812C16.2748 13.812 16.8928 13.956 17.4208 14.244C17.9608 14.532 18.3748 14.91 18.6628 15.378V13.956H21.7408V24H18.6628V22.578C18.3628 23.046 17.9428 23.424 17.4028 23.712C16.8748 24 16.2568 24.144 15.5488 24.144C14.7328 24.144 13.9888 23.934 13.3168 23.514C12.6448 23.082 12.1108 22.476 11.7148 21.696C11.3308 20.904 11.1388 19.992 11.1388 18.96ZM18.6628 18.978C18.6628 18.21 18.4468 17.604 18.0148 17.16C17.5948 16.716 17.0788 16.494 16.4668 16.494C15.8548 16.494 15.3328 16.716 14.9008 17.16C14.4808 17.592 14.2708 18.192 14.2708 18.96C14.2708 19.728 14.4808 20.34 14.9008 20.796C15.3328 21.24 15.8548 21.462 16.4668 21.462C17.0788 21.462 17.5948 21.24 18.0148 20.796C18.4468 20.352 18.6628 19.746 18.6628 18.978ZM25.5156 12.912C24.9756 12.912 24.5316 12.756 24.1836 12.444C23.8476 12.12 23.6796 11.724 23.6796 11.256C23.6796 10.776 23.8476 10.38 24.1836 10.068C24.5316 9.744 24.9756 9.582 25.5156 9.582C26.0436 9.582 26.4756 9.744 26.8116 10.068C27.1596 10.38 27.3336 10.776 27.3336 11.256C27.3336 11.724 27.1596 12.12 26.8116 12.444C26.4756 12.756 26.0436 12.912 25.5156 12.912ZM27.0456 13.956V24H23.9676V13.956H27.0456ZM32.3542 10.68V24H29.2762V10.68H32.3542ZM49.0028 13.956L46.2848 24H42.8828L41.2988 17.484L39.6608 24H36.2768L33.5408 13.956H36.6188L38.0408 21.138L39.7328 13.956H42.9908L44.7008 21.102L46.1048 13.956H49.0028ZM51.7245 12.912C51.1845 12.912 50.7405 12.756 50.3925 12.444C50.0565 12.12 49.8885 11.724 49.8885 11.256C49.8885 10.776 50.0565 10.38 50.3925 10.068C50.7405 9.744 51.1845 9.582 51.7245 9.582C52.2525 9.582 52.6845 9.744 53.0205 10.068C53.3685 10.38 53.5425 10.776 53.5425 11.256C53.5425 11.724 53.3685 12.12 53.0205 12.444C52.6845 12.756 52.2525 12.912 51.7245 12.912ZM53.2545 13.956V24H50.1765V13.956H53.2545ZM61.6051 13.848C62.7811 13.848 63.7171 14.232 64.4131 15C65.1211 15.756 65.4751 16.8 65.4751 18.132V24H62.4151V18.546C62.4151 17.874 62.2411 17.352 61.8931 16.98C61.5451 16.608 61.0771 16.422 60.4891 16.422C59.9011 16.422 59.4331 16.608 59.0851 16.98C58.7371 17.352 58.5631 17.874 58.5631 18.546V24H55.4851V13.956H58.5631V15.288C58.8751 14.844 59.2951 14.496 59.8231 14.244C60.3511 13.98 60.9451 13.848 61.6051 13.848ZM67.002 18.96C67.002 17.928 67.194 17.022 67.578 16.242C67.974 15.462 68.508 14.862 69.18 14.442C69.852 14.022 70.602 13.812 71.43 13.812C72.09 13.812 72.69 13.95 73.23 14.226C73.782 14.502 74.214 14.874 74.526 15.342V10.68H77.604V24H74.526V22.56C74.238 23.04 73.824 23.424 73.284 23.712C72.756 24 72.138 24.144 71.43 24.144C70.602 24.144 69.852 23.934 69.18 23.514C68.508 23.082 67.974 22.476 67.578 21.696C67.194 20.904 67.002 19.992 67.002 18.96ZM74.526 18.978C74.526 18.21 74.31 17.604 73.878 17.16C73.458 16.716 72.942 16.494 72.33 16.494C71.718 16.494 71.196 16.716 70.764 17.16C70.344 17.592 70.134 18.192 70.134 18.96C70.134 19.728 70.344 20.34 70.764 20.796C71.196 21.24 71.718 21.462 72.33 21.462C72.942 21.462 73.458 21.24 73.878 20.796C74.31 20.352 74.526 19.746 74.526 18.978Z" fill="black"/>
<path d="M649.753 12.872L645.861 22H644.573L648.521 12.998H643.117V11.906H649.753V12.872ZM657.619 12.984H652.705V16.176C652.92 15.8773 653.237 15.6347 653.657 15.448C654.077 15.252 654.53 15.154 655.015 15.154C655.79 15.154 656.42 15.3173 656.905 15.644C657.39 15.9613 657.736 16.3767 657.941 16.89C658.156 17.394 658.263 17.9307 658.263 18.5C658.263 19.172 658.137 19.774 657.885 20.306C657.633 20.838 657.246 21.258 656.723 21.566C656.21 21.874 655.57 22.028 654.805 22.028C653.825 22.028 653.032 21.776 652.425 21.272C651.818 20.768 651.45 20.096 651.319 19.256H652.565C652.686 19.788 652.943 20.2033 653.335 20.502C653.727 20.8007 654.222 20.95 654.819 20.95C655.556 20.95 656.112 20.7307 656.485 20.292C656.858 19.844 657.045 19.256 657.045 18.528C657.045 17.8 656.858 17.24 656.485 16.848C656.112 16.4467 655.561 16.246 654.833 16.246C654.338 16.246 653.904 16.3673 653.531 16.61C653.167 16.8433 652.901 17.1653 652.733 17.576H651.529V11.864H657.619V12.984ZM659.676 14.16C659.676 13.5253 659.867 13.0213 660.25 12.648C660.633 12.2653 661.123 12.074 661.72 12.074C662.317 12.074 662.807 12.2653 663.19 12.648C663.573 13.0213 663.764 13.5253 663.764 14.16C663.764 14.804 663.573 15.3173 663.19 15.7C662.807 16.0733 662.317 16.26 661.72 16.26C661.123 16.26 660.633 16.0733 660.25 15.7C659.867 15.3173 659.676 14.804 659.676 14.16ZM667.852 12.228L662.182 22H660.922L666.592 12.228H667.852ZM661.72 12.858C661.403 12.858 661.151 12.97 660.964 13.194C660.787 13.4087 660.698 13.7307 660.698 14.16C660.698 14.5893 660.787 14.916 660.964 15.14C661.151 15.364 661.403 15.476 661.72 15.476C662.037 15.476 662.289 15.364 662.476 15.14C662.663 14.9067 662.756 14.58 662.756 14.16C662.756 13.7307 662.663 13.4087 662.476 13.194C662.289 12.97 662.037 12.858 661.72 12.858ZM665.038 20.068C665.038 19.424 665.229 18.9153 665.612 18.542C665.995 18.1593 666.485 17.968 667.082 17.968C667.679 17.968 668.165 18.1593 668.538 18.542C668.921 18.9153 669.112 19.424 669.112 20.068C669.112 20.7027 668.921 21.2113 668.538 21.594C668.165 21.9767 667.679 22.168 667.082 22.168C666.485 22.168 665.995 21.9813 665.612 21.608C665.229 21.2253 665.038 20.712 665.038 20.068ZM667.068 18.766C666.751 18.766 666.499 18.878 666.312 19.102C666.125 19.3167 666.032 19.6387 666.032 20.068C666.032 20.488 666.125 20.81 666.312 21.034C666.499 21.2487 666.751 21.356 667.068 21.356C667.385 21.356 667.637 21.2487 667.824 21.034C668.011 20.81 668.104 20.488 668.104 20.068C668.104 19.6387 668.011 19.3167 667.824 19.102C667.637 18.878 667.385 18.766 667.068 18.766Z" fill="black" fill-opacity="0.7"/>
<rect y="33" width="665.784" height="15" rx="7.5" fill="#444444"/>
<rect x="1.65204" y="35" width="662.479" height="11" rx="5.5" fill="#222222"/>
<rect x="3" y="38" width="485" height="5" rx="2.5" fill="#0B9EEA"/>
</svg>
